<?xml version="1.0" encoding="UTF-8"?>
<svg xmlns="http://www.w3.org/2000/svg" viewBox="0 0 2317.05 1309.74">
  <defs>
    <style>
      .cls-1 {
        fill: #8c1335;
        letter-spacing: .03em;
      }

      .cls-1, .cls-2 {
        font-size: 150px;
      }

      .cls-1, .cls-3 {
        font-family: Copperplate, Copperplate;
      }

      .cls-2 {
        font-family: STIXTwoText, 'STIX Two Text';
        font-variation-settings: 'wght' 400;
      }

      .cls-4 {
        fill: #fff;
      }

      .cls-5 {
        fill: #a8042f;
        stroke: #a8042f;
        stroke-miterlimit: 10;
      }

      .cls-6 {
        letter-spacing: 0em;
      }

      .cls-3 {
        font-size: 50px;
        letter-spacing: .03em;
      }
    </style>
  </defs>
  <g id="Layer_1" data-name="Layer 1">
    <text class="cls-2" transform="translate(59.62 124.27)"><tspan x="0" y="0">La Kathast</tspan><tspan class="cls-6" x="684.59" y="0">r</tspan><tspan x="740.09" y="0">ophe</tspan></text>
    <text class="cls-1" transform="translate(0 1088.95)"><tspan x="0" y="0">la Kathastrophe</tspan></text>
    <text class="cls-3" transform="translate(917.12 76.7)"><tspan x="0" y="0">la Kathastrophe</tspan></text>
  </g>
  <g id="Layer_3" data-name="Layer 3">
    <path class="cls-5" d="M391.07,757.51c-.37.88-3.57,8.7-.75,11.11.94.8,2.63,1.07,11.48-2.45,9.09-3.61,15.54-7.17,16.19-7.53,6.84-3.8,10.25-5.7,14.31-8.66,6.65-4.85,10.15-8.76,13.36-7.53,1.23.47,2.59,1.76,2.45,2.82-.13,1.01-1.57,1.51-3.2,2.26-2.41,1.11-4.46,2.86-6.78,4.14-5.41,3-16.42,10.79-19.04,12.69-17.97,12.98-33.26,31.68-36.49,35.69,0,0-.47.58-16.38,21.65,3.97-2.41,9.93-6.16,16.94-11.11,7.78-5.49,10.7-8.12,17.13-12.99,9.54-7.23,16.69-11.74,30.31-20.33,6.98-4.4,15.86-9.83,26.35-15.81,3.79-.92,7.91-2.2,12.24-3.95,1.48-.6,2.9-1.23,4.26-1.87,7.2-3.26,12.85-4.12,16.45-4.35,3.41-.21,5.14.17,5.84,1.32.9,1.49-.61,3.92-1.13,4.71-2.86,1.95-7.47,5.01-13.36,8.47-9.69,5.69-9.78,4.79-16.38,9.04-7.06,4.54-9.42,7.15-16.19,9.79-3.43,1.34-3.01.74-7.15,2.26-7.62,2.8-10.25,5.26-17.32,8.66-2.74,1.32-6.81,3.09-12.05,4.71,1.41,1.81,3.75,4.52,7.15,7.15,9.26,7.16,17.77,7.11,31.62,11.48,4.55,1.44,11.11,3.8,18.82,7.72-3.26-1.32-6-1.84-7.91-2.07-3.88-.47-5.21.16-12.85-.13-2-.08-3.73-.19-5.88-.62-2-.4-3-.8-5.22-1.48-3.25-.99-4.06-1.03-8.25-2.09-2.27-.58-5.55-1.46-9.57-2.73-1.14-.62-2.84-1.63-4.74-3.11-4.06-3.16-4.13-4.79-6.78-5.65-2.3-.75-3.2.04-7.53-.56-2.17-.3-3.92-.77-5.08-1.13-7.69,4.25-16.25,9.72-25.04,16.75-4.83,3.87-9.15,7.74-12.99,11.48-1.86,2.24-4.96,2.15-6.21.75-1.23-1.38-1.02-4.38,1.32-6.02,2.94-3.45,6.52-7.86,10.35-13.18,5.01-6.94,6.49-9.9,10.89-15.54,1.21-1.55,4.19-5.29,11.32-12.56,9.3-9.48,25.35-21.75,24.66-22.72-.13-.18-.75.18-6.78,2.82-5.01,2.2-5.99,2.57-7.34,2.82-1.69.32-4.3.52-7.72-.38-.61-.83-1.8-2.7-1.88-5.27-.17-5.08,4.13-8.2,4.52-8.47Z"/>
    <path class="cls-5" d="M503.31,795.63c-2.24-.44-5.55-.85-9.51-.42-2.42.26-4.19.74-5.6,1.13-3.09.85-8.12,2.29-13.04,6.21-3.15,2.51-4.47,4.62-5.18,6.07-.8,1.64-1.85,3.78-.85,5.51.98,1.69,3.3,1.93,3.81,1.98,4.32.96,7.28.35,9.18-.38,2.15-.82,3.06-1.84,6.07-3.29,2.77-1.34,5.2-2.03,6.78-2.4-.47.67-1.16,1.74-1.84,3.15-1.22,2.57-2.63,5.54-1.6,8.47.18.52.82,2.25,2.64,3.29,1.9,1.1,8.92.27,11.58-.38,7.66-1.87,22.64-13.13,25.93-15.39-.26,1.01-.69,2.57-1.32,4.45-1.46,4.35-2.55,11.96-1.17,13.19,1.38,1.23,3.42.94,5.84.56,1.98-.31,5-1.05,8.42-3.04,2.12-1.32,3.91-2.46,5.25-3.32,10.38-6.66,13.54-9.23,15.64-10.53.34-.21,2.04-1.31,2.6-3.55.57-2.29-.46-4.09-.66-4.42,3.32-.51,8.27-1.7,13.55-4.71,7.77-4.42,12.11-10.41,14.12-13.65,1.84-4.85,3.67-9.69,5.51-14.54l1.41.42c-.84,8.76-3.27,15.02-5.32,19.11-2.87,5.72-5.58,8.33-12.05,17.88-3.73,5.5-6.55,10.13-8.33,13.13.13,1.21.91,2.25,2.02,2.68,1.59.62,2.97-.36,3.06-.42,2.47-3.62,4.98-6.04,6.82-7.58,1.35-1.13,2.89-2.24,10.07-6.4,3.25-1.88,13.41-5.74,16.14-6.35-1.8,1.57-5.69,5.41-7.29,11.62-.78,3.01-.78,5.66-.61,7.58.58.71,1.51,1.67,2.87,2.49,2.03,1.23,3.97,1.52,5.04,1.6,4.29-.45,9.87-1.46,16.05-3.76,5.08-1.89,9.23-4.16,12.42-6.21,1.19.48,4.07,1.46,7.72.85,3.46-.58,5.78-2.28,6.78-3.11.3.33.71.83,1.04,1.51.83,1.73.38,2.97,1.2,3.66.6.51,15.66.41,18.09-.36,1.88-.6,3.28-1.51,4.14-2.16,12.12-7.22,17.58-11.63,20.24-14.41,1.82-1.91,3.9-3.57,5.64-5.54,1.93-2.19,3.1-3.88,5.46-4.71,1.49-.52,2.87-.49,3.83-.38-2.2,5.44-3.55,9.86-4.39,12.99-.89,3.29-1.69,5.24-3.29,9.13-1.17,2.84-1.72,3.83-2.82,4.61-2.9,2.06-6.91.76-8.09.38-3.97-1.29-6.17-4.24-6.96-5.46.01,1.05.18,3.1,1.38,5.27.86,1.56,1.93,2.6,2.67,3.2,2.14,1.76,4.35,2.2,6.12,2.54,4.11.78,8.59.24,10.22-1.4.84-.85,1.55-1.95,1.55-1.96s.47-.73.84-1.54c.66-1.44,4.79-12.37,10.35-27.39.17-.34.61-1.08,1.51-1.6,1.23-.72,2.45-.53,2.78-.46.11-.07,1.66-1.11,1.65-2.93-.01-1.14-.64-1.93-.85-2.16-1.21-.2-2.53-.37-3.95-.47-1.56-.11-3.01-.13-4.33-.09-.16.7-.54,1.78-1.51,2.45-1.1.76-2.39.58-3.29.47-1.78-.21-4.28-.38-7.62-.28-3.14,4.87-6.33,8.42-8.75,10.82-1.3,1.29-2.59,2.56-4.28,3.9-.84.67-1.51,1.13-1.84,1.37-7.26,5.1-12,8.38-18.31,10.94-.4.16-2.13.85-4.52,1.32-2.3.45-5.91.82-7.73-.82-.11-.1-.17-.17-.2-.21,0,0-.01-.02-.02-.03-.06-.08-.39-1.39.22-2.78,1.09-2.49,5.15-5.19,7.15-8.38.78-1.24,1.64-3.19,1.76-6.16-1.37-.34-3.29-.74-5.62-1-2.86-.31-5.52-.6-8.83.08-2.65.55-4.5,1.46-6,2.21-3.9,1.93-8.88,7.1-10.05,8.78-.29.41-1.72,2.56-1.13,5.27.31,1.43,1.06,2.42,1.51,2.92-3.36,1.54-7.63,3.16-12.71,4.33-5.87,1.36-11.08,1.71-15.15,1.69-.85-.36-2.17-1.1-2.64-2.45-.41-1.17,0-2.33,1.69-5.55.84-1.59,1.99-3.67,3.45-6.06,1.05-1.78,2.09-3.55,3.14-5.33-.08-.25-.89-2.69-3.48-3.58-2.56-.87-9.7,2.28-12.24,3.29-4.92,1.97-9.28,4.15-13.08,6.31,2.6-4.35,4.77-7.85,6.21-10.16,5.71-9.16,7.66-11.79,8.75-16.47.94-4.04.76-7.56.47-9.88,0-.77-.03-3.99-2.07-5.27-1.03-.65-2.38-.62-5.08-.56-1.17.02-2.14.11-2.82.19-.46,3.44-1.46,8.05-3.76,13.08-1.48,3.24-3.17,5.9-4.71,8-2.26,2.23-5.39,4.91-9.51,7.34-5.14,3.04-9.94,4.61-13.46,5.46-6.59-.13-13.18-.25-19.76-.38l18.64-22.78c1.54-3.43,1.86-6.28,1.91-8.07.05-2.14-.29-2.76-.56-3.11-1.22-1.54-3.77-1.14-7.44-.94-2.39.13-5.72.19-9.8-.11-.6.24-1,.8-1.03,1.43-.03.87.69,1.36.73,1.39,1.37.19,3.36.43,5.76.59,5.13.33,6.89-.07,7.62.94.43.59,1.04,2.39-3.41,8.26-6.12,7.47-12.24,14.93-18.35,22.4-6.02-.31-12.04-.61-18.07-.92-2.36-.57-4.32.98-4.43,2.42-.1,1.3,1.28,2.93,3.38,3.11l16.19.84c-1.15,1.2-2.94,2.9-5.36,4.61-2.89,2.03-5.6,3.23-10.92,5.55-4.14,1.81-7.27,2.96-8.19,3.29-3.66,1.34-6.92,2.35-9.6,3.11-3.02.98-4.01.15-4.22-.06-1.37-1.34-.36-5.26,2.91-9.72.95-1,1.98-2.01,3.11-3.01,3.85-3.44,7.75-5.92,11.2-7.72.95-1.08.95-2.71,0-3.76-.97-1.08-2.64-1.24-3.82-.35-3.35,2.6-7.33,5.35-11.99,7.97-6.76,3.8-13.11,6.31-18.45,8-2.13.19-4.27.38-6.4.56.98-1.61,2.26-3.4,3.95-5.18,4.65-4.89,9.93-7.14,13.18-8.19h9.22c1.07.44,2.28.11,2.92-.75.52-.7.59-1.67.19-2.49Z"/>
    <path class="cls-5" d="M749.04,764.91c-.72.11-1.64.13-2.19-.42-.44-.45-.32-.97-.71-1.69-.26-.49-.77-1.12-1.91-1.62-.04-.05-.91-1.17-.42-2.47.51-1.37,9.77-4.33,10.59-4.63,1.25-.28,3.18-.57,5.51-.31,2.06.23,4.36.48,5.85,1.91,3.48,3.33.67,11.15.29,12.21-1.45,4.03-4.75,8.64-5.6,9.84-.02.03-.03.04-.05.07-3.47,4.96-8.15,12.27-14.12,23.34,1.21-.3,3.06-.73,5.33-1.12,4.28-.73,5.84-.59,10.19-1.05,1.12-.12,6.12-.66,12.24-2.07,3.33-.77,6.04-1.57,7.91-2.16,1.45-.09,2.72.43,3.01,1.22.38,1.01-.68,2.86-3.01,3.48-1.38,1.57-2.76,3.14-4.14,4.71,1.02-.24,2.65-.65,4.62-1.26,4.16-1.3,4.93-2.01,8.56-3.06,2.36-.69,4.17-1.02,6.59-1.45,2.7-.49,5.79-.92,5.83-.71.05.23-3.75.58-8,2.92-2.41,1.33-2.12,1.73-5.46,4.05-2.21,1.54-4.7,2.94-9.69,5.74-3.4,1.91-4.95,2.7-5.5,4.48-.13.43-.43,1.65-1.08,3.38-.36.95-.73,1.83-1.61,2.25-.42.2-.79.21-.94.25-1.22.3-2.69-.25-3.38-1.3-.58-.88-.47-1.88-.38-2.46.55-3.81,2.56-6.99,3.76-9.51.73-1.52,1.67-3.76,2.45-6.68-4.06.91-7.43,1.4-9.79,1.69-4.46.55-6.72.52-10.82,1.32-3.06.6-5.53,1.34-7.15,1.88-.4.41-.42.63-.38.75.3.83,4.23-.48,8.84-.05,2.24.21,4.01.77,5.09,1.18.64.29,1.41.77,1.98,1.6,1.21,1.77,1.02,4.41-.47,6.68-2.17,2.96-4.52,4.71-6.04,5.66-2.11,1.33-3.94,1.97-5.37,2.45-2.95,1.01-5.11,1.23-7.6,1.48-.57.06-2.06.04-3.93-.21-.47-.06-1.26-.24-2-.82-.56-.44-1.09-1.11-1.48-2.38-.85-2.74-.25-5.7,0-6.78.44-1.94,1.37-4.93,3.46-8.26-1.95.19-3.89.38-5.84.56-.15-.35-.33-.87-.38-1.51-.08-1.03.2-1.84.38-2.26,2.7-.82,5.4-1.63,8.09-2.45,2.65-4.87,5.58-9.94,8.85-15.15,3.4-5.43,6.81-10.48,10.16-15.15,1.15-1.94,2.63-5.13,2.78-9.21.04-1.1-.02-2.12-.14-3.04-.93-.29-2.41-.64-4.24-.56-1.86.08-7.87,1.82-9.69,2.26-.16.34-.4,1-.32,1.83.14,1.54,1.26,2.44,1.48,2.61Z"/>
    <path class="cls-5" d="M816.92,797.56c.58-.44,1.42-1.14,2.26-2.16,1.41-1.73,1.6-2.87,2.92-3.76.57-.39,1.43-.78,2.73-.85,1.41.17,2.89.39,4.42.66,1.31.23,2.56.48,3.76.75l.75,3.95c.22.39.59.93,1.22,1.32.94.57,1.8.42,4.16.2,3.21-.3,2.77-.13,4.52-.37,1.05-.14,1.95-.31,4.05-.75,1.63-.35,3.8-.82,6.38-1.44,1.09-.34,2.66-.97,4.14-2.26,1.32-1.15,1.86-2.19,3.11-3.95.87-1.22,2.19-2.95,4.05-4.89.18-.04,2.57-.49,4.05,1.04,1.47,1.52,1.46,4.43-.47,6.49-.75.65-1.51,1.4-2.26,2.26-3.44,3.96-4.84,8.31-5.46,11.29.92-.39,2.39-1.08,4.05-2.16,3.28-2.15,4.16-3.8,6.96-5.55,1.35-.84,1.7-.8,5.63-2.31,7.51-2.87,8.3-3.81,13-5.32,1.79-.57,4.59-1.37,8.19-1.98.89.18,3.65.85,5.84,3.39,2.69,3.13,2.5,6.79,2.45,7.53-.25,3.14-.5,6.27-.75,9.41,1.68.29,9.36,1.45,16.56-3.48,5.15-3.53,7.33-8.29,8.09-10.26.8-1.61,1.87-4.02,2.73-7.06,1.77-6.26,1.57-11.3,1.51-13.74-.15-5.67.03-13.87,1.22-26.07.86-2.29,2.95-3.91,5.36-4.14,2.33-.23,4.62.86,5.93,2.82.82,3.14,1.63,6.27,2.45,9.41,1.73,5.39,1.93,9.79,1.79,12.8-.23,5.02-1.69,9.75-4.61,19.2-.68,2.2-1.28,4.02-1.69,5.27,6.02-2.56,11.18-4.39,15.06-5.66,6.58-2.15,9.71-2.77,11.64-1.11,1.37,1.17,1.68,3.08,1.72,4.52.31,1.61.49,3.9-.47,6.21-.75,1.81-1.85,2.8-2.92,3.95-1.58,1.7-3.62,4.33-5.46,8.28-.13.09-2.34,1.57-2.07,2.82.24,1.14,2.51,2.07,5.65,1.51,2.86.4,6.63.6,10.97-.06,8.38-1.28,14.36-5.12,17.45-7.47-.12-1.58-.1-3.92.66-6.59,1.11-3.89,3.21-6.35,5.55-9.04,1.94-2.23,5.02-5.28,9.49-8.12,2.95-1.11,6.25-.48,8.49,1.62,2.49,2.34,3.22,6.1,1.79,9.32-.99,2.31-2.75,5.65-5.84,8.94-3.94,4.21-8.18,6.37-10.73,7.44,9.01,5.37,15.92,6.07,20.52,5.74,1.29-.09,2.19-.25,14.17-2.23,1.85-.31,8.02-1.33,9.83-1.63,3-.85,6.38-2.03,9.98-3.67,5.27-2.4,9.56-5.15,12.89-7.62-2.58,1.95-5.42,4.14-8.47,6.59-4.62,3.7-5.01,4.19-6.87,5.27-3.76,2.17-5.41,2.02-9.88,4.33-2.7,1.39-4.74,2.81-6.02,3.76-4.04,1.58-13.97,4.81-26.16,2.16-8.39-1.82-14.39-5.67-17.69-8.19-1.69.46-4.26,1.19-7.34,2.26-4.95,1.71-5.35,2.25-7.91,3.01-2.27.68-4.01.88-14.02.94-2.97.02-6.62.03-10.82,0-.81-.34-2.34-1.15-3.39-2.82-1.54-2.48-1.37-5.83.38-8.66,3.7-4.52,7.4-9.04,11.11-13.55,1.18-1.72.83-2.33.75-2.45-.49-.73-2.47-.47-4.99.66-3.95,1.13-7.17,2.4-9.54,3.44-1.48.65-3.49,1.53-5.99,2.96-3.08,1.76-5.43,3.11-7.53,5.27-1.44,1.48-3.94,4.56-5.18,9.88-.03,3.26-1.88,5.6-3.67,5.74-1.14.09-3.15-.63-3.56-1.94,0,0,0-.02-.01-.04-1.14-3.93,2.19-9.64,2.19-9.64,3.28-5.64,4.46-6.9,6.29-10.04,1.76-3.03,3.11-6.53,5.79-13.54,0,0,1.02-2.67,4.14-11.39.37-1.18.88-3.12,1.09-5.56.21-2.46.04-4.52-1.14-11.85-.3-1.87-.71-4.34-1.22-7.25-.54-1.15-1.65-1.87-2.73-1.79-1.46.1-2.75,1.63-2.54,3.48-.58,14.16-.73,23.55-.47,29.27.06,1.26.22,4.26-.75,8-.98,3.77-2.67,6.58-3.86,8.28-.88,1.06-2.07,2.47-3.48,4.14-5.51,6.51-6.58,7.57-8.2,8.55-2.22,1.33-4.09,1.67-7.42,2.27-2.85.52-7.09.95-12.33.28-2.35,2.53-7.38,7.14-15.03,8.87-2.69.61-6.86,1.55-11.7-.11-6.86-2.35-10.08-8.24-10.92-9.88-1.32,1.88-3.43,5.05-5.55,9.22-5.62,11.05-7.7,21.91-9.41,31.15-.93,5.02-1.23,7.92-2.73,13.46-1.38,5.11-2.89,9.19-3.95,11.86-1.84.05-4.23-.21-5.55-1.82-2.07-2.51,0-6.47,1.88-14.37,1.75-7.37.5-6.23,2.45-15.34.88-4.1,2.09-9.66,4.71-16.47,2.21-5.75,3.11-6.38,5.18-11.55,1.58-3.97,3.51-9.75,4.71-17.25-.63-.1-1.58-.2-2.73-.19-3.45.04-5.98,1.15-6.69,1.44-2.33.93-6.41,1.56-14.11.26-.33,1.71-1.1,4.37-3.01,7.06-.94,1.32-1.94,2.34-2.82,3.11-2.15,2.11-4.5,4.25-7.06,6.4-1.17.98-2.33,1.93-3.48,2.82-2.47.45-4.54.6-6.02.66-4.49.17-5.85-.5-6.31-.75-1.54-.84-2.44-2.1-2.92-2.92-.28-1.62-.54-4.43.38-7.72,1.35-4.87,4.45-7.77,5.75-8.87.78-.67,1.9-1.48,3.38-2.15,2.29-1.03,4.37-1.21,5.65-1.22Z"/>
    <path class="cls-5" d="M251.74,761.52c-.94,1.03-2.41,2.66-4.11,4.73-10.01,12.2-9.75,17.24-18.64,28.03-1.34,1.63-2.81,3.29-4.97,5.9-1.73,2.09-2.73,3.37-3.44,4.25-1.09,1.35-6.57,8.15-13.61,14.8-1.28,1.21-2.98,2.75-5.71,5.44-1.66,1.62-2.98,2.96-3.79,3.79-.37,1.35,0,2.79.96,3.75,1.26,1.25,2.93,1.07,3.15,1.05.52-.29,1.31-.76,2.25-1.39,3.85-2.59,4.81-4.67,7.45-6.51,1.27-.89,3.22-1.93,6.09-2.46,1.89-.29,4.42-.57,7.41-.58,2.1,0,5.68-.01,9.44.9,6.2,1.5,6.94,4.12,12.41,5.82,4.28,1.33,8.33,1.27,11.62.79,1.09-.4,2.53-1.06,4.04-2.16,1.74-1.27,2.92-2.64,3.66-3.66-.86.85-2.54,2.22-4.88,2.48-1.37.15-2.5-.13-4.78-.96-2.01-.74-4.7-1.83-7.81-3.4-1.21-.66-2.85-1.49-4.86-2.33-1.51-.64-3.69-1.55-6.08-2.14-2.94-.72-4.27-.48-10.96-.6-1.71-.03-4.26-.09-7.38-.24,10.45-11.36,17.87-18.58,22.96-23.25,2.26-2.07,6.94-6.29,12.05-12.94,2.69-3.51,10.42-15.23,9.16-17.38-.25-.43-.83-1.2-2.23-1.73-1.53-.2-3.28-.33-5.22-.3-1.53.02-2.94.14-4.19.3Z"/>
    <path class="cls-4" d="M254.44,765.97c-2.09,2.72-4.2,5.62-6.29,8.69-4.32,6.33-7.94,12.48-11,18.28,4.04-3.07,9.06-7.53,13.85-13.73,3.69-4.78,6.3-9.38,8.15-13.24-.46-.2-1.3-.5-2.38-.49-1.06,0-1.87.29-2.33.49Z"/>
    <path class="cls-5" d="M291.46,804.55c-.21-.61-.63-1.47-1.46-2.12-.93-.73-2.23-1.05-5.65-.55-1.86.27-4.45.79-7.48,1.92-2.26,1.07-5.9,3.15-9.25,6.96-2.63,3-4.12,6-4.96,8.09-1.54,2.32-1.56,5.06-.19,6.73.87,1.05,2.08,1.41,2.7,1.54,2.13-.38,4.72-1.04,7.53-2.24,4.74-2.02,8.13-4.74,10.28-6.78-.2.44-2.24,5.16.31,8.89.75,1.1,1.69,1.81,2.47,2.26,2.62.39,6.32.73,10.73.42,6.18-.43,10.76-1.94,15.11-3.39,3.35-1.11,7.68-2.79,12.52-5.36-3.3,1.15-7.24,2.26-11.74,3.04-6.02,1.03-18.57,1.46-20.68.99-1.12-.25-2.04-.63-2.75-.99-.05-1.1,0-2.31.21-3.6,1.05-6.4,5.42-10.53,7.48-12.24.37-1.34-.11-2.76-1.2-3.58-1.16-.87-2.78-.87-3.98,0Z"/>
  </g>
  <g id="Layer_4" data-name="Layer 4">
    <path class="cls-4" d="M413.1,793.65c9.41-7.32,20.92-15.09,34.64-22.21,7.01-3.64,13.77-6.68,20.14-9.22,3.75-1.42,6.65-2.86,8.66-3.95,2.31-1.25,4.03-2.36,6.78-2.82,2-.34,3.72-.19,4.89,0-2.39,1.88-6.13,4.54-11.11,6.96-3.32,1.62-5.69,2.4-7.34,3.01-9.14,3.36-10.9,6.68-21.65,12.61-1.39.77-7.6,3.51-19.96,8.98-3.62,1.6-11.46,5.06-15.05,6.65Z"/>
    <path class="cls-4" d="M541.57,803.75h18.92c1.24.03,1.96.28,2.16.75.4.92-1.14,2.68-4.61,5.27-2.73,1.91-5.68,3.83-8.85,5.74-4.62,2.78-9.08,5.15-13.27,7.15-1.12.39-1.9.39-2.35,0-1.6-1.38,1.07-7.69,8-18.92Z"/>
    <path class="cls-4" d="M662.02,799.76c-.74,1.2-1.52,2.42-2.35,3.67-.75,1.12-1.5,2.2-2.24,3.24-.45.71-.89,1.42-1.34,2.13-1.27.83-3.49,2.03-6.49,2.45-1.71.24-3.2.16-4.33,0-.09-1.29.09-2.34.38-3.2,1.63-4.9,8.19-8,16.38-8.28Z"/>
    <path class="cls-4" d="M744.07,808.86c-3.69,2.68-4.35,5.48-4.52,6.45-.35,2.07,0,5.35.48,5.4.02,0,.04,0,.04,0,.64-.17,5.48-.47,7.72-.88,5.52-1.01,10.07-5.39,10.07-5.39.48-.78,1.31-2.4.75-3.78-.83-2.06-12.7-1.74-14.54-1.79Z"/>
    <path class="cls-4" d="M822.24,796.59l1.41-1.91h6.14v2.54c-.89.27-2.42.6-4.31.35-1.41-.18-2.51-.62-3.25-.99Z"/>
    <path class="cls-4" d="M813.91,801.32l14.33.42c-.4,1.41-.8,2.82-1.2,4.24-1.6,2.08-3.77,4.5-6.64,6.85-1.75,1.44-3.46,2.6-5.01,3.53-1.21.3-2.85.59-4.8.56-1.75-.02-3.24-.28-4.38-.56-.21-.56-.42-1.3-.49-2.19-.13-1.58.22-2.85.49-3.6.54-.91,1.14-1.86,1.84-2.82,1.93-2.69,3.99-4.8,5.86-6.42Z"/>
    <path class="cls-4" d="M875.75,801.8c1.04-.85,17.51-7.25,17.88-7.53.38-.28,8,0,8,0,.58,1.3,1.5,3.87,1.22,7.14-.17,2.02-.73,3.63-1.22,4.72-.94.85-1.88,1.69-2.82,2.54-1.42-.44-3.6-1.15-6.21-2.16-4.13-1.6-5.45-2.45-8.09-3.29-1.97-.63-4.91-1.33-8.75-1.41Z"/>
    <path class="cls-4" d="M872.74,805.19c-1.77.23-3.22.98-3.46,2.05-.16.71.25,1.4,1.06,2.75.6,1.01,1.21,1.77,1.65,2.26,1.11,1.08,2.99,2.63,5.69,3.67,4.68,1.81,8.85.98,10.49.56,1.42-.25,3.76-.87,6.02-2.61.91-.7,1.62-1.43,2.16-2.09-.48-.45-1.24-1.08-2.31-1.58-1.18-.55-2.01-.6-3.67-.99-.84-.2-2.05-.52-3.51-1.04-1.53-.76-3.48-1.56-5.81-2.14-3.3-.83-6.2-.94-8.33-.85Z"/>
    <path class="cls-4" d="M1007.5,801.76c-.46.4-1.14.38-1.55,0-.46-.43-.49-1.21,0-1.69,1.12-2.01,2.77-4.49,5.15-6.99,1.67-1.75,3.34-3.12,4.8-4.16.27-.33.71-.44,1.06-.28.42.19.63.72.42,1.2-.39,1.49-1.14,3.64-2.68,5.86-2.46,3.53-5.58,5.3-7.2,6.07Z"/>
    <path class="cls-4" d="M287.53,805.4c-.75-.03-2.05-.03-3.6.28,0,0-5.75,1.17-16.94,14.75-.05.13-.33.87,0,1.27.37.45,1.49.44,2.54-.42,13.69-7.68,20.11-12.65,19.27-14.89-.16-.43-.58-.76-1.27-.99Z"/>
    <path class="cls-5" d="M736.84,244.99c-1.04,1.13-2.65,2.92-4.52,5.2-11.01,13.42-10.72,18.96-20.49,30.82-1.47,1.79-3.09,3.62-5.47,6.49-1.9,2.29-3.01,3.71-3.78,4.68-1.19,1.48-7.22,8.96-14.96,16.27-1.41,1.33-3.27,3.03-6.28,5.98-1.82,1.78-3.27,3.25-4.16,4.16-.41,1.48,0,3.06,1.06,4.12,1.39,1.38,3.22,1.18,3.46,1.15.57-.32,1.44-.84,2.47-1.53,4.23-2.85,5.29-5.13,8.19-7.15,1.39-.97,3.54-2.12,6.7-2.71,2.07-.32,4.86-.63,8.15-.63,2.31,0,6.24-.01,10.38.99,6.82,1.65,7.63,4.53,13.65,6.4,4.71,1.46,9.16,1.39,12.78.87,1.2-.44,2.79-1.17,4.45-2.38,1.92-1.39,3.21-2.91,4.02-4.02-.95.93-2.79,2.44-5.36,2.73-1.5.17-2.75-.14-5.25-1.06-2.21-.81-5.17-2.01-8.59-3.74-1.33-.72-3.14-1.64-5.34-2.56-1.66-.7-4.05-1.7-6.68-2.35-3.23-.8-4.7-.53-12.05-.66-1.88-.03-4.68-.1-8.12-.26,11.49-12.49,19.65-20.43,25.25-25.56,2.48-2.28,7.63-6.91,13.25-14.23,2.96-3.85,11.45-16.74,10.07-19.11-.27-.47-.91-1.32-2.45-1.91-1.68-.22-3.61-.36-5.74-.33-1.68.02-3.23.15-4.61.33Z"/>
    <path class="cls-4" d="M739.81,249.89c-2.3,2.99-4.62,6.18-6.92,9.55-4.75,6.96-8.73,13.72-12.09,20.09,4.44-3.37,9.96-8.27,15.22-15.09,4.06-5.26,6.93-10.31,8.96-14.55-.51-.22-1.43-.55-2.61-.54-1.16,0-2.06.32-2.56.54Z"/>
    <path class="cls-5" d="M769.15,293.16c-.21-.61-.63-1.47-1.46-2.12-.93-.73-2.23-1.05-5.65-.55-1.86.27-4.45.79-7.48,1.92-2.26,1.07-5.9,3.15-9.25,6.96-2.63,3-4.12,6-4.96,8.09-1.54,2.32-1.56,5.06-.19,6.73.87,1.05,2.08,1.41,2.7,1.54,2.13-.38,4.72-1.04,7.53-2.24,4.74-2.02,8.13-4.74,10.28-6.78-.2.44-2.24,5.16.31,8.89.75,1.1,1.69,1.81,2.47,2.26,2.62.39,6.32.73,10.73.42,6.18-.43,10.76-1.94,15.11-3.39,3.35-1.11,7.68-2.79,12.52-5.36-3.3,1.15-7.24,2.26-11.74,3.04-6.02,1.03-18.57,1.46-20.68.99-1.12-.25-2.04-.63-2.75-.99-.05-1.1,0-2.31.21-3.6,1.05-6.4,5.42-10.53,7.48-12.24.37-1.34-.11-2.76-1.2-3.58-1.16-.87-2.78-.87-3.98,0Z"/>
    <path class="cls-4" d="M765.22,294c-.75-.03-2.05-.03-3.6.28,0,0-5.75,1.17-16.94,14.75-.05.13-.33.87,0,1.27.37.45,1.49.44,2.54-.42,13.69-7.68,20.11-12.65,19.27-14.89-.16-.43-.58-.76-1.27-.99Z"/>
  </g>
</svg>